<?xml version="1.0" encoding="UTF-8"?>
<svg width="74px" height="74px" viewBox="0 0 74 74" version="1.1" xmlns="http://www.w3.org/2000/svg" xmlns:xlink="http://www.w3.org/1999/xlink">
    <!-- Generator: Sketch 56.3 (81716) - https://sketch.com -->
    <title>DSM/Singular Logo/Singular Logoform Blue</title>
    <desc>Created with Sketch.</desc>
    <g id="DSM/Singular-Logo/Singular-Logoform-Blue" stroke="none" stroke-width="1" fill="none" fill-rule="evenodd">
        <g id="Group-2" fill="#3A92E5" fill-rule="nonzero">
            <path d="M24.9012039,14.5689318 C32.6455664,14.0386431 40.3610122,15.9527762 46.9594666,20.0413894 C47.0727095,20.1121285 47.2194892,20.0971617 47.3161237,20.0050218 C47.4127582,19.9128819 47.4346936,19.7669809 47.3694242,19.6504996 C46.8715428,18.773381 46.3355259,17.9185081 45.7613734,17.085881 C40.4795686,9.3906314 32.2669003,4.20471112 23.0484496,2.74371994 C13.988883,6.37061577 6.75128319,13.4629374 2.9414581,22.4471098 C2.8886539,22.569688 2.92556392,22.712466 3.03115869,22.794096 C3.13675346,22.875726 3.28422492,22.8754841 3.38955132,22.7935081 C9.60247181,18.0090166 17.0810739,15.1497135 24.9012039,14.5689318 L24.9012039,14.5689318 Z" id="Path"></path>
            <path d="M10.5749327,37.0435081 C13.9177923,29.3166899 19.8258428,22.9809427 27.3005683,19.1070674 C27.4168395,19.0446774 27.4769111,18.9121385 27.447186,18.7835775 C27.4174609,18.6550165 27.3053068,18.5622985 27.1734496,18.5572793 C26.1469666,18.5350335 25.1173056,18.5572793 24.0940005,18.6335505 C14.8776006,19.4742598 6.38446634,23.9795824 0.519847927,31.1388471 C-1.06924523,40.8981391 1.42826356,50.8812782 7.42556827,58.7426606 C7.50676216,58.8488781 7.64966194,58.8864885 7.77262529,58.8340041 C7.89558863,58.7815198 7.96728594,58.652313 7.94675471,58.520203 C6.85179374,51.2555313 7.76050942,43.8297748 10.5749327,37.0435081 L10.5749327,37.0435081 Z" id="Path"></path>
            <path d="M62.1692123,36.109186 C58.7033514,43.8838077 52.7635989,50.2939582 45.2751445,54.3411776 C45.1599568,54.4065883 45.1031375,54.5412692 45.1366654,54.6694202 C45.1701932,54.7975711 45.2856902,54.8871693 45.418153,54.8880061 C47.2101361,54.8942524 48.9997578,54.7571614 50.7698479,54.4778301 C59.3454612,53.1180981 67.1282977,48.6706015 72.6533225,41.9725335 C74.1348191,32.2863949 71.5992921,22.4151714 65.6331954,14.642025 C65.5520015,14.5358076 65.4091017,14.4981972 65.2861384,14.5506815 C65.163175,14.6031659 65.0914777,14.7323726 65.1120089,14.8644827 C66.1629601,22.0818392 65.1424326,29.449254 62.1692123,36.109186 L62.1692123,36.109186 Z" id="Path"></path>
            <path d="M49.164975,14.6928725 C53.802745,21.4007032 56.2394348,29.3849162 56.1374327,37.5392708 C56.1347162,37.6719208 56.2216614,37.7897704 56.3492062,37.8263183 C56.476751,37.8628662 56.612916,37.8089488 56.6808649,37.6949911 C57.3034518,36.6430645 57.8699222,35.5589208 58.3778988,34.4471098 C62.1860805,26.0717236 62.4451274,16.5122065 59.0961191,7.94287248 C51.4942011,1.88768677 41.7574409,-0.817223765 32.1215428,0.449228416 C31.9891962,0.466901615 31.8856366,0.571990591 31.8699054,0.704582117 C31.8541742,0.837173643 31.9302685,0.96357749 32.0548056,1.01172842 C38.9801067,3.78922155 44.9319745,8.54828373 49.164975,14.6928725 L49.164975,14.6928725 Z" id="Path"></path>
            <path d="M51.4626445,58.5742284 C49.476991,58.8879838 47.4697556,59.0452474 45.4594666,59.0445674 C38.3527925,59.0075289 31.4052979,56.9365138 25.4382801,53.0763471 C25.3261362,53.0034833 25.1788484,53.0159994 25.0806073,53.1067412 C24.9823661,53.197483 24.9582182,53.3433159 25.0219666,53.460881 C25.6888552,54.6577345 26.4319094,55.8105301 27.2465428,56.9121521 C32.8185547,64.2442762 40.965652,69.188416 50.0420937,70.7458386 C59.1255195,67.1102959 66.3763917,59.9910289 70.1776869,50.9757115 C70.2278073,50.8535383 70.1898114,50.712934 70.0849763,50.6326348 C69.9801413,50.5523356 69.8344936,50.5522767 69.7295937,50.6324911 C64.3979312,54.7612423 58.1185027,57.4912861 51.4626445,58.5742284 L51.4626445,58.5742284 Z" id="Path"></path>
            <path d="M23.9605259,59.4291013 C18.9214822,52.6857228 16.3674022,44.4082582 16.730653,35.9979572 C16.7381035,35.8634464 16.6526796,35.7412568 16.5237903,35.7020624 C16.3949009,35.6628679 16.2559147,35.7168159 16.1872208,35.832703 C15.6554411,36.7119403 15.1670937,37.615542 14.7221784,38.5435081 C10.8632585,46.9549922 10.543805,56.5637856 13.8355259,65.2129996 C21.5076483,71.4462344 31.4064551,74.2481955 41.2073479,72.960881 C41.3392772,72.9421771 41.441871,72.8366363 41.4568321,72.7042303 C41.4717932,72.5718244 41.3953366,72.4460519 41.2709072,72.398381 C34.4275469,69.7320515 28.4421586,65.2476803 23.9605259,59.4291013 L23.9605259,59.4291013 Z" id="Path"></path>
        </g>
    </g>
</svg>