<?xml version="1.0" encoding="UTF-8"?>
<svg width="302px" height="74px" viewBox="0 0 302 74" version="1.1" xmlns="http://www.w3.org/2000/svg" xmlns:xlink="http://www.w3.org/1999/xlink">
    <!-- Generator: Sketch 56.3 (81716) - https://sketch.com -->
    <title>DSM/Singular Logo/Singular Logotype Blue</title>
    <desc>Created with Sketch.</desc>
    <g id="DSM/Singular-Logo/Singular-Logotype-Blue" stroke="none" stroke-width="1" fill="none" fill-rule="evenodd">
        <g id="Group-2" transform="translate(1.000000, 9.000000)" fill="#3A92E5" fill-rule="nonzero">
            <path d="M95.4541693,17.1368848 L91.4989328,21.951074 C91.2455544,21.7230335 91.0301828,21.5304659 90.8148112,21.3429659 C88.7523112,19.5693173 86.4161625,18.540601 83.6442031,18.7585064 C82.1239328,18.8775943 80.9330544,19.7340132 80.5909936,20.8919524 C80.2489328,22.0498916 80.5580544,23.017797 81.4550139,23.7196551 C82.1431937,24.2185596 82.8904154,24.6304677 83.679676,24.9460064 C86.2717369,26.0786078 88.9550139,27.0262429 91.4659936,28.3108713 C94.5572098,29.8894186 96.3663315,32.4586754 96.2801828,36.0769186 C96.1915004,39.8370537 94.3570409,42.5710064 91.1112639,44.3497227 C85.6357571,47.3497227 76.4406558,46.6301281 71.5099125,40.3311416 C71.1475815,39.8674591 71.152649,39.6064794 71.563122,39.1858713 C72.8528179,37.8581686 74.0969058,36.4848578 75.3308585,35.1546213 C76.2126152,35.955297 76.9828855,36.7863781 77.879845,37.4350267 C80.1602504,39.0921213 82.6940342,39.9460064 85.5242706,39.3429659 C86.2617709,39.1755358 86.953655,38.8486206 87.5512977,38.3851956 C89.0715679,37.2044524 89.0994396,35.2128983 87.5512977,34.0625605 C86.6290004,33.3733713 85.5242706,32.9071551 84.4600815,32.4358713 C82.2303517,31.4451618 79.9144733,30.6368848 77.7430206,29.5372227 C74.6264666,27.9586754 73.0023112,25.3210064 73.0301828,21.7863781 C73.0580544,18.2517497 74.7430206,15.6875605 77.786095,14.0127294 C83.0411625,11.1216821 90.7210612,12.2694862 94.9195409,16.5338443 C95.0918382,16.7086754 95.2438652,16.8961754 95.4541693,17.1368848 Z" id="Path"></path>
            <path d="M178.587615,17.0279321 C178.587615,16.0828308 178.615487,15.1351956 178.587615,14.1900943 C178.564811,13.6377294 178.759913,13.4704997 179.299608,13.478101 C181.205014,13.5034389 183.110419,13.5034389 185.015825,13.478101 C185.590994,13.478101 185.77596,13.642797 185.77596,14.2255673 C185.745554,16.4730335 185.77596,18.7204997 185.77596,20.9679659 C185.77596,27.9561416 185.77596,34.9434727 185.77596,41.9299591 C185.77596,45.7458375 184.884068,49.2931348 182.540318,52.3666145 C180.153494,55.4958375 176.920386,57.3429659 173.117176,58.1183037 C166.326636,59.5068173 160.030183,58.1715132 154.227818,54.4139118 C154.08846,54.3226956 153.97444,54.2086754 153.781872,54.0667835 C154.795386,52.1689794 155.808899,50.2889118 156.860419,48.3480335 L157.676298,48.8547902 C161.324946,51.1022564 165.24471,52.384351 169.572413,51.9764118 C173.11971,51.6444862 175.995554,50.1672902 177.576636,46.7796213 C178.395048,45.0287767 178.481196,43.1563105 178.374777,41.1824929 C178.237754,41.234365 178.108239,41.3042346 177.989642,41.3902632 C175.379845,44.0431348 172.16194,45.2542835 168.493021,45.259351 C162.239642,45.259351 157.344372,42.7559727 154.326636,37.1791145 C150.862953,30.7889118 151.742176,21.5304659 158.02596,16.4882362 C162.766669,12.6875605 168.118021,11.674047 173.91025,13.8378983 C175.430521,14.4079997 176.727818,15.3860402 177.885757,16.5313105 C178.073257,16.7188105 178.227818,16.9367159 178.392514,17.1419524 L178.587615,17.0279321 Z M160.02511,29.0988781 C160.02511,34.5667835 163.965149,38.6005673 169.306365,38.6132657 C174.647581,38.6259051 178.57748,34.5591821 178.574948,29.0862091 C178.572413,23.6132362 174.637446,19.6630673 169.29623,19.6807442 C163.955014,19.6985402 160.020048,23.674047 160.02511,29.0988781 Z" id="Shape"></path>
            <path d="M146.198257,45.1858713 L138.510757,45.1858713 L138.510757,44.2863781 C138.510757,38.9113781 138.510757,33.5355335 138.510757,28.1588443 C138.553375,26.5912625 138.272178,25.0317405 137.684744,23.5777632 C135.531027,18.55327 129.186433,18.8091821 126.323257,21.634351 C124.730028,23.1616462 123.832549,25.2753003 123.840149,27.482324 C123.789473,33.0769186 123.812277,38.674047 123.80721,44.2686416 C123.80721,44.5574929 123.80721,44.8438105 123.80721,45.17827 L116.205858,45.17827 C116.190656,44.9248916 116.165318,44.6715132 116.165318,44.4181348 C116.165318,34.3995537 116.16025,24.3809727 116.150115,14.3623916 C116.150115,13.7061416 116.309744,13.4679659 117.004,13.4857024 C118.980352,13.5287767 120.961771,13.5186416 122.940656,13.4857024 C123.523426,13.4857024 123.700791,13.6630673 123.683054,14.2458375 C123.642514,15.3632362 123.670386,16.4857024 123.670386,17.7399254 C123.771141,17.6635818 123.865229,17.5788176 123.951636,17.486547 C126.006534,14.4257362 129.004,13.0270875 132.5665,12.7661078 C136.620554,12.4721889 140.226129,13.5515808 143.036095,16.642797 C145.134068,18.951074 146.076636,21.7737091 146.134913,24.8294524 C146.236264,30.2998916 146.188122,35.7753983 146.203325,41.2483713 C146.200791,42.5279321 146.198257,43.8100267 146.198257,45.1858713 Z" id="Path"></path>
            <path d="M273.774271,45.1960064 L266.565656,45.1960064 L266.565656,41.3953308 C265.929676,41.9654321 265.478663,42.4088443 264.999777,42.7965132 C261.80721,45.4519186 258.13069,46.3666145 254.051298,45.8167835 C249.366331,45.1884051 245.72275,42.8725267 243.156027,38.9172902 C240.822413,35.3091821 240.09775,31.3159389 240.533561,27.0743848 C240.819216,24.0932719 241.904737,21.2446537 243.675453,18.8294524 C248.165318,12.669824 257.28694,10.9747227 263.129845,14.6715132 C264.292852,15.4113781 265.334237,16.3438105 266.558054,17.2838443 L266.558054,15.5786078 C266.558054,13.4806348 266.558054,13.4806348 268.658561,13.4806348 C270.148426,13.4806348 271.638291,13.4958375 273.128156,13.4806348 C273.617176,13.4806348 273.819879,13.5971889 273.819879,14.1318173 C273.806365,24.3412767 273.802142,34.5507362 273.80721,44.7601956 C273.814811,44.8792835 273.792007,45.0009051 273.774271,45.1960064 Z M266.791163,29.3066483 C266.677142,28.5110402 266.621399,27.7002294 266.436433,26.9223578 C264.614642,19.3083375 255.908561,17.8007362 251.269203,21.9003983 C248.573257,24.2796213 247.747244,27.3733713 248.137446,30.8547902 C248.637439,35.3673251 252.36022,38.8370391 256.896737,39.0186416 C262.526804,39.1858713 266.740487,35.0279321 266.791163,29.3066483 L266.791163,29.3066483 Z" id="Shape"></path>
            <path d="M220.648426,13.4958375 C220.648426,13.853101 220.648426,14.0938105 220.648426,14.3319862 C220.648426,20.1461754 220.648426,25.9603645 220.648426,31.7745537 C220.648426,34.5617159 220.184744,37.2703308 218.763291,39.7306348 C216.923764,42.9130673 214.090994,44.7449929 210.571568,45.4975267 C206.355352,46.39702 202.210081,46.2297902 198.315656,44.1368848 C194.56819,42.1098578 192.647581,38.8159389 192.074946,34.6757362 C191.916808,33.3185737 191.849935,31.9523279 191.874777,30.5862091 C191.851973,25.1867159 191.874777,19.7872227 191.844372,14.3902632 C191.844372,13.6149254 192.082548,13.455297 192.797075,13.4730335 C194.773426,13.5161078 196.752311,13.5110402 198.731196,13.4730335 C199.374777,13.4730335 199.559744,13.6503983 199.55721,14.299047 C199.534406,20.1140808 199.55721,25.9265808 199.539473,31.7416145 C199.539473,33.2618848 199.76498,34.7137429 200.552987,36.049047 C201.855352,38.2686416 204.498088,39.4012429 207.330858,38.978101 C210.759068,38.4713443 212.86971,36.0819862 212.945723,32.4586754 C213.021737,28.8353645 212.971061,25.2272564 212.976129,21.611547 C212.976129,19.1461754 212.976129,16.67827 212.993865,14.2103645 C212.993865,13.9747227 213.247244,13.5389118 213.376467,13.5363781 C215.743021,13.4831686 218.134913,13.4958375 220.648426,13.4958375 Z" id="Path"></path>
            <path d="M234.277649,45.1808037 L226.729507,45.1808037 L226.729507,0.125060494 C226.95632,0.0923069296 227.184658,0.0711644989 227.413629,0.0617158993 C229.465994,0.0617158993 231.515825,0.0743848183 233.56819,0.0617158993 C234.112953,0.0617158993 234.328325,0.173202386 234.328325,0.786378062 C234.330858,15.1123916 234.330858,30.2086754 234.330858,44.5549591 C234.330858,44.7373916 234.295386,44.9274254 234.277649,45.1808037 Z" id="Path"></path>
            <path d="M299.21346,20.4992159 C298.177142,20.3370537 297.153494,20.0735402 296.11971,20.0279321 C291.581703,19.8328308 288.518358,22.3590132 287.826636,26.8691483 C287.659911,27.9796524 287.575222,29.10093 287.573257,30.2238781 C287.545386,34.86577 287.560588,39.5076618 287.560588,44.1596889 L287.560588,45.1732024 L279.938967,45.1732024 L279.938967,44.392797 C279.938967,34.4029321 279.933054,24.4105335 279.92123,14.415601 C279.92123,13.6554659 280.136602,13.4654321 280.863798,13.4857024 C282.695723,13.5338443 284.527649,13.5009051 286.362108,13.5009051 L287.226129,13.5009051 L287.226129,17.4992159 L287.40096,17.5828308 C287.558054,17.3674591 287.725284,17.1622227 287.872244,16.9417835 C290.659406,12.7255673 295.549608,12.0617159 299.428831,13.1917835 C299.668207,13.294374 299.838399,13.5123717 299.879845,13.7694862 C299.712615,15.986547 299.499777,18.1960064 299.294541,20.4105335 C299.281872,20.4384051 299.23373,20.4840132 299.21346,20.4992159 Z" id="Path"></path>
            <path d="M110.018358,45.1960064 L102.417007,45.1960064 C102.401804,44.9122227 102.379,44.6537767 102.379,44.3953308 C102.379,34.3818173 102.373933,24.3666145 102.363798,14.3497227 C102.363798,13.7061416 102.500622,13.455297 103.205014,13.4704997 C105.232041,13.5186416 107.259068,13.5009051 109.286095,13.4704997 C109.823257,13.4704997 110.063967,13.5794524 110.063967,14.1926281 C110.047075,24.3277632 110.042852,34.4628983 110.051298,44.5980335 C110.056365,44.7829997 110.033561,44.9502294 110.018358,45.1960064 Z" id="Path"></path>
            <path d="M111.090149,4.89617536 C111.090149,7.60732401 108.992176,9.67995914 106.235419,9.68758146 C103.478663,9.69516185 101.368021,7.63519563 101.360399,4.91644563 C101.352818,2.19769563 103.460926,0.12252671 106.215149,0.119990614 C108.969372,0.117459143 111.087615,2.19769563 111.090149,4.89617536 Z" id="Path"></path>
        </g>
    </g>
</svg>